PathFileType	4	(X/Y/Z)	C:/Users/opensim2020/Desktop/walking_exp_matlab/subject01_walking17_run.trc	
DataRate	CameraRate	NumFrames	NumMarkers	Units	OrigDataRate	OrigDataStartFrame	OrigNumFrames	
100.00	100.00	7	61	mm	100.00	271	87	
Frame#	Time	LTHI			LKNE			RELB			STRN			RWRA			LSHO			RFRM			RUPA			RSHO			RASI			RBHD			RFIN			LFHD			RFHD			CLAV			LHEE			RWRB			LASI			LBHD			LWRA			LTIB			RTHI			LWRB			LTOE			RKNE			C7			LFRM			LFIN			LUPA			LELB			RTIB			RTOE			RBAK			RANK			T10			LPSI			LANK			RHEE			RPSI			*39			*40			*41			*42			*43			*44			*45			*46			*47			*48			*49			*50			*51			*52			*53			*54			*55			*56			*57			*58			*59			*60			
		X1	Y1	Z1	X2	Y2	Z2	X3	Y3	Z3	X4	Y4	Z4	X5	Y5	Z5	X6	Y6	Z6	X7	Y7	Z7	X8	Y8	Z8	X9	Y9	Z9	X10	Y10	Z10	X11	Y11	Z11	X12	Y12	Z12	X13	Y13	Z13	X14	Y14	Z14	X15	Y15	Z15	X16	Y16	Z16	X17	Y17	Z17	X18	Y18	Z18	X19	Y19	Z19	X20	Y20	Z20	X21	Y21	Z21	X22	Y22	Z22	X23	Y23	Z23	X24	Y24	Z24	X25	Y25	Z25	X26	Y26	Z26	X27	Y27	Z27	X28	Y28	Z28	X29	Y29	Z29	X30	Y30	Z30	X31	Y31	Z31	X32	Y32	Z32	X33	Y33	Z33	X34	Y34	Z34	X35	Y35	Z35	X36	Y36	Z36	X37	Y37	Z37	X38	Y38	Z38	X39	Y39	Z39	X40	Y40	Z40	X41	Y41	Z41	X42	Y42	Z42	X43	Y43	Z43	X44	Y44	Z44	X45	Y45	Z45	X46	Y46	Z46	X47	Y47	Z47	X48	Y48	Z48	X49	Y49	Z49	X50	Y50	Z50	X51	Y51	Z51	X52	Y52	Z52	X53	Y53	Z53	X54	Y54	Z54	X55	Y55	Z55	X56	Y56	Z56	X57	Y57	Z57	X58	Y58	Z58	X59	Y59	Z59	X60	Y60	Z60	X61	Y61	Z61	

1	0.000	-541.01605	-2046.92310	535.57300	-526.47125	-2057.78296	404.96506	-56.94365	-2143.07715	1038.58997	-362.45972	-1890.88538	1118.81689	-164.10863	-1962.06323	900.56525	-508.14383	-1938.41870	1325.28271	-83.83600	-2070.46387	934.72424	-86.64118	-2096.07129	1155.08350	-197.90511	-1962.04797	1302.38367	-281.36746	-2041.46790	888.98181	-264.01477	-1989.65710	1547.31592	-151.58194	-1905.72424	843.85791	-402.74603	-1910.19409	1600.45776	-292.60489	-1883.21985	1612.41235	-349.34149	-1899.20142	1279.67297	-423.90408	-2462.85303	411.74051	-125.91565	-1981.30847	860.22992	-481.71390	-2023.94800	881.44684	-379.93768	-2014.85608	1539.97839	-564.57153	-1941.61963	896.35876	-528.55835	-2233.79297	388.39847	-224.13754	-2036.45142	564.19080	-612.89880	-1962.29980	866.74915	-485.16577	-2509.72192	230.55850	-255.87115	-1976.51550	416.11130	-351.75711	-2030.19373	1370.49927	-662.06812	-2015.57129	966.52191	-571.98285	-1905.60791	825.16260	-635.29999	-2013.48499	1198.39172	-692.81903	-2077.47754	1072.60681	-256.98059	-2043.87891	254.89281	-326.07547	-1979.70667	23.70094	-293.92035	-2129.02686	1201.44019	-318.42352	-2114.24072	66.17139	-383.56412	-2137.88037	1110.96277	-455.18994	-2201.01636	919.27942	-479.56061	-2443.97266	371.99213	-368.63171	-2170.27466	35.50293	-304.03027	-2214.68799	921.28430	-3101.88330	1973.04785	1023.46545	-3140.70850	2012.59583	1022.12732				-313.96225	-1900.31519	1644.38928																																																						 
2	0.010	-543.45599	-1978.64648	541.48511	-526.48071	-1979.63000	407.58905	-60.05401	-2078.81665	1019.75458	-365.05399	-1846.64575	1116.74658	-179.67810	-1894.20483	901.87561	-510.63126	-1898.93396	1324.38220	-95.54359	-2001.01196	922.22217	-87.03027	-2036.85205	1139.75049	-198.90199	-1916.85583	1295.88123	-280.37833	-2002.39478	883.84711	-261.48450	-1946.07031	1543.26624	-172.39041	-1834.37817	849.06525	-400.23770	-1868.64966	1599.38660	-290.23865	-1840.78955	1610.50537	-351.21713	-1854.79309	1277.50854	-426.69385	-2384.17700	404.23843	-143.63994	-1908.45813	857.47913	-479.53638	-1982.17126	876.29218	-377.23264	-1972.11853	1536.64758	-587.68201	-1923.28943	889.38379	-531.12927	-2152.03223	384.59122	-224.54468	-2009.70740	560.37463	-637.30560	-1947.36499	865.10199	-492.22443	-2420.96826	222.31343	-258.23215	-1949.54004	413.08353	-349.51331	-1985.68591	1369.72314	-676.07098	-1996.05042	971.12488	-603.64423	-1890.83044	818.30377	-637.29388	-1981.22949	1200.89563	-697.80652	-2053.76733	1081.62366	-256.80713	-2026.71765	253.56038	-325.65387	-1980.15186	23.26562	-292.20682	-2084.65967	1194.03699	-318.70636	-2113.69995	66.30527	-381.13794	-2095.42920	1106.18896	-455.85291	-2162.00659	910.93610	-482.16696	-2362.47314	364.65900	-368.94479	-2171.04907	36.61428	-305.15356	-2176.26831	914.84296	-3101.96899	1973.09644	1023.40289	-3140.71338	2012.59290	1022.18335				-310.41492	-1859.80591	1641.03687																																																						 
3	0.020	-544.67767	-1910.38586	549.28442	-525.55823	-1900.51270	417.57684	-64.99821	-2013.05579	1006.61914	-367.50751	-1802.95544	1115.91296	-197.82846	-1826.25928	907.85101	-513.13239	-1858.15515	1324.20532	-107.79004	-1930.53564	917.19794	-89.62463	-1976.97864	1128.88074	-199.66628	-1870.01550	1293.58337	-277.77289	-1956.01758	882.53400	-259.88898	-1902.55286	1540.51587	-193.34608	-1763.23840	859.78619	-398.37231	-1826.54761	1598.89563	-288.80969	-1798.18433	1609.51379	-351.36737	-1809.88257	1277.74341	-429.58984	-2310.02686	395.63669	-162.12448	-1834.95837	860.71417	-477.94327	-1941.02673	871.51111	-375.41000	-1929.04028	1534.63293	-611.23444	-1904.28613	887.44330	-531.94141	-2070.79541	385.48300	-224.92271	-1980.82520	557.65100	-660.50867	-1932.86609	868.01581	-496.69421	-2328.86255	211.02870	-259.21429	-1925.93323	407.78391	-348.63754	-1940.49487	1370.99609	-689.07715	-1975.95850	981.40674	-635.60040	-1876.43298	816.92957	-636.82996	-1948.68933	1207.90698	-701.42755	-2026.81311	1092.16614	-255.66791	-2016.35046	251.71628	-325.69662	-1981.30359	22.45788	-290.90875	-2040.47058	1193.42102	-317.41245	-2113.14697	68.38177	-378.95166	-2051.73877	1108.78052	-455.22546	-2121.37183	906.97931	-484.96152	-2283.35718	357.93637	-367.68103	-2171.81079	39.66825	-309.34927	-2134.38062	912.66895	-3101.82739	1973.17114	1023.45959	-3140.71216	2012.48376	1022.09979				-306.90854	-1819.10156	1638.98120																																																						 
4	0.030	-545.39917	-1842.27551	560.89014	-523.88293	-1821.67236	431.13763	-71.81010	-1948.00916	998.13373	-370.05096	-1759.56006	1115.96960	-213.64235	-1758.22058	920.38470	-514.38953	-1816.40979	1325.65503	-120.33079	-1860.01123	918.63800	-93.66724	-1918.49072	1122.26367	-201.70778	-1821.75745	1293.19275	-272.85638	-1920.98779	880.17902	-259.19748	-1858.82910	1539.01196	-214.21555	-1693.33044	876.87897	-397.50952	-1783.58887	1598.86279	-287.82031	-1754.99353	1608.78735	-353.83817	-1765.61304	1277.81689	-430.75391	-2231.12476	381.28687	-180.52051	-1762.95386	870.62469	-477.17365	-1900.26123	868.52655	-374.66556	-1885.59656	1533.77246	-633.97528	-1883.44263	890.21692	-531.79834	-1989.64502	388.44958	-225.52997	-1951.17627	554.63495	-681.51953	-1917.93481	875.33038	-499.48474	-2230.97681	197.37601	-258.94379	-1907.44702	399.93683	-348.06097	-1895.38879	1371.19470	-700.40253	-1951.45471	991.86395	-664.90234	-1861.49573	820.99609	-635.37054	-1916.52698	1218.03601	-703.79480	-1998.57385	1108.15991	-255.15474	-2007.25549	249.96791	-325.56308	-1981.76978	22.64302	-287.98285	-1995.72485	1195.15076	-315.41504	-2111.78271	70.94877	-376.51273	-2008.69238	1107.93066	-455.08832	-2078.36499	910.38837	-486.02402	-2199.48901	345.46573	-365.38257	-2172.15918	46.49029	-313.14236	-2092.68823	917.99310	-3101.85425	1973.09509	1023.59106	-3140.74951	2012.54932	1022.09332				-304.67038	-1777.87427	1638.20972																																																						 
5	0.040	-545.49536	-1775.54053	575.40833	-521.26678	-1744.31287	447.54703	-80.20609	-1883.79175	993.40973	-373.16907	-1716.66113	1116.86230	-230.49625	-1695.07141	935.52295	-514.70801	-1774.33398	1328.57983	-133.72336	-1791.27759	924.33185	-98.28133	-1861.39795	1119.12695	-203.69061	-1772.96912	1294.94775	-272.09613	-1870.28918	880.40155	-259.38940	-1815.00586	1538.85620	-234.54782	-1625.35693	899.28400	-397.52878	-1740.12891	1600.02930	-287.58469	-1711.41064	1609.15808	-356.89172	-1722.12048	1278.68201	-431.43671	-2153.40576	365.26236	-198.36917	-1692.71777	886.81323	-477.58722	-1855.36597	872.42914	-374.98071	-1842.17957	1534.27673	-654.66382	-1860.78479	897.97992	-530.60632	-1908.53552	392.27689	-226.00246	-1921.95239	551.18536	-699.52618	-1898.92700	887.14136	-501.79388	-2134.27368	182.04854	-257.79196	-1891.64856	392.02560	-347.79565	-1852.06042	1371.95544	-710.96497	-1929.35339	1007.40051	-690.13586	-1844.52063	829.39478	-633.78101	-1883.05212	1229.11707	-704.79749	-1967.70740	1125.48389	-255.37616	-1998.31750	248.23567	-325.74350	-1982.51294	22.90092	-285.90750	-1950.21008	1196.75049	-313.71262	-2109.35303	75.05299	-373.89813	-1965.25146	1107.76086	-453.77722	-2034.58508	915.13245	-486.71066	-2119.04980	334.31616	-363.33710	-2171.38574	55.45805	-314.27377	-2048.47217	922.46228	-3101.91504	1973.11340	1023.58459	-3140.62939	2012.47119	1021.89557	-487.01752	-2116.96338	332.69186	-303.99701	-1735.07446	1638.90271																																																						 
6	0.050	-544.90826	-1710.58313	593.17578	-518.05927	-1670.63220	467.53018	-89.30354	-1821.39612	992.36713	-376.56836	-1672.95667	1118.89136	-246.35388	-1632.86292	956.15338	-515.16998	-1732.14294	1332.13477	-147.50949	-1725.31873	933.36169	-102.94321	-1805.42676	1119.36719	-206.05971	-1724.35474	1299.67871	-270.67407	-1826.50269	879.47028	-260.40042	-1770.95825	1540.23474	-252.80852	-1560.07654	925.58679	-397.97668	-1696.09424	1602.53735	-287.99786	-1667.52344	1610.94788	-359.97675	-1677.47009	1280.83630	-431.74319	-2074.01196	347.43677	-215.67453	-1625.12610	907.22723	-479.27371	-1810.58484	877.83911	-376.00357	-1797.98743	1536.42859	-673.16205	-1835.93018	910.10547	-528.89111	-1828.90515	397.44702	-226.22704	-1893.21948	548.16290	-714.98596	-1877.23755	902.79785	-503.16675	-2034.07764	168.47221	-256.33850	-1877.29749	386.63107	-348.31851	-1809.44019	1373.25000	-719.53296	-1901.97241	1022.87946	-711.86951	-1825.07141	842.36334	-631.63531	-1848.19226	1240.76086	-704.87036	-1936.78906	1143.95068	-255.54356	-1988.52271	250.76143	-325.66086	-1982.42322	22.84050	-284.32968	-1903.96326	1198.52563	-312.32947	-2106.03540	81.81628	-371.60403	-1920.89270	1109.62085	-452.02502	-1990.54456	919.18842	-487.02090	-2036.93506	321.36542	-361.57321	-2168.63525	66.86111	-313.10510	-2002.24182	926.72986	-3101.87598	1973.24780	1023.38403	-3140.67188	2012.51208	1021.96881				-304.62863	-1690.69775	1641.10986	-487.18942	-2033.32300	318.21671																																																			 
7	0.060	-543.22552	-1648.39673	611.98853	-515.43036	-1600.06238	490.24084	-98.55555	-1760.75464	994.25537	-380.55301	-1628.93860	1122.11682	-261.09692	-1573.88696	978.66339	-516.66705	-1690.33057	1336.63855	-161.08768	-1661.78650	944.96344	-107.43899	-1750.45398	1122.11951	-208.55519	-1675.66357	1305.88269	-267.57324	-1784.29810	879.83905	-262.12604	-1726.72742	1543.02856	-269.18976	-1498.55457	954.28967	-399.12131	-1651.55127	1606.14758	-289.18753	-1623.23889	1613.81580	-364.45462	-1632.78748	1284.18726	-430.20587	-1991.49341	325.92285	-232.28117	-1561.24023	930.21930	-478.82874	-1768.06897	883.58600	-377.79211	-1753.58533	1539.98865	-688.12500	-1808.47498	924.75562	-526.69623	-1750.77710	403.45206	-225.89256	-1865.42163	548.41193	-728.40680	-1852.19031	921.12811	-502.72714	-1931.89185	155.15912	-255.40617	-1861.97424	387.52289	-349.63043	-1766.53345	1375.76880	-726.44379	-1874.89282	1040.61255	-730.51996	-1801.57214	857.66223	-629.66681	-1812.18054	1253.13647	-704.02905	-1905.35815	1162.01111	-255.51498	-1975.22974	257.44666	-325.58081	-1982.12427	22.71817	-282.91812	-1856.99255	1201.38513	-310.67514	-2100.68066	91.58204	-369.78812	-1876.23145	1112.44788	-450.18250	-1945.67786	923.25726	-485.48743	-1951.69543	304.72641	-359.89532	-2163.67334	80.89011	-310.83246	-1956.21472	930.00232	-3101.80640	1973.18420	1023.57501	-3140.67358	2012.59229	1022.16217	-486.46414	-1948.37451	302.97797	-305.96643	-1646.22302	1643.89563																																																						 
